<?xml version="1.0" encoding="UTF-8"?>
<svg xmlns="http://www.w3.org/2000/svg" viewBox="0 0 138 138" width="128" height="128">
<rect width="138" height="138" rx="20" fill="#000000"/>
<g transform="translate(0, -2)">
<!-- A -->
<path fill="#ffffff" d="M54.7 32.5 30.5 86.3h10.3L47 72.7h12.4v13.6h12.1V32.5H54.7zm4.8 28.9-7.2.1 7.2-15.9v15.8z"/>
<!-- K -->
<path fill="#ffffff" d="M73.8 51.5l18.7-18.3h12.3L79.3 58l28.8 28.2H95.4L73.8 65.3z"/>
<!-- Lines -->
<path fill="#ffffff" d="M109.6 88.3H28c-.2 0-.4-.2-.4-.4s.2-.4.4-.4h81.6c.2 0 .4.2.4.4s-.2.4-.4.4z"/>
<path fill="#ffffff" d="M109.6 106.1H28c-.2 0-.4-.2-.4-.4s.2-.4.4-.4h81.6c.2 0 .4.2.4.4s-.2.4-.4.4z"/>
</g>
</svg>
